<svg height="400" viewBox="0 0 400 400" width="400" xmlns="http://www.w3.org/2000/svg"><g fill="none"><path d="m400 200c0 3.363281-.08125 6.702344-.244531 10.024219-.350781 7.036719-1.060938 13.983593-2.122657 20.816406-1.020312 6.603906-2.367187 13.102344-4.024218 19.469531-1.828906 7.102344-4.049219 14.049219-6.628906 20.816406-3.763282 9.89375-8.29375 19.4125-13.510157 28.48125-3.273437 5.689844-6.816406 11.200001-10.6125 16.514063-5.70625 7.983594-11.983593 15.534375-18.775781 22.5875-1.346875 1.3875-2.702344 2.759375-4.08125 4.114062-.530469.522657-1.069531 1.044532-1.607813 1.559375-1.860937 1.779688-3.755468 3.526563-5.681249 5.232813-.285938.260937-.579688.522656-.873438.775781-1.583594 1.396094-3.192188 2.759375-4.816406 4.097656-1.771094 1.460938-3.567188 2.889844-5.3875 4.285938-.097657.073437-.203907.155469-.302344.228906-1.869531 1.428906-3.763281 2.824219-5.68125 4.1875-.726563.50625-1.453125 1.0125-2.179688 1.51875-1.877343 1.30625-3.7875 2.571094-5.714062 3.803906-3.469531 2.228907-7.003906 4.342969-10.6125 6.342969-9.363281 5.216407-19.183594 9.697657-29.3875 13.371094-3.49375 1.257031-7.028906 2.424219-10.6125 3.485938-6.139063 1.828906-12.407813 3.371093-18.775781 4.603906-1.355469.269531-2.717969.514062-4.08125.750781-.530469.089844-1.069532.1875-1.607813.269531-1.885937.31875-3.779687.596094-5.68125.849219-.29375.040625-.579687.073438-.873437.114063-1.6.2125-3.207813.4-4.816407.571093-1.7875.196094-3.583593.359375-5.3875.50625-.097656.007813-.203906.017188-.302343.024219-1.885938.146875-3.779688.260938-5.68125.350781-.726563.040625-1.453125.073438-2.179688.097657-2.573437.099218-5.160937.148437-7.757031.148437-67.159375 0-126.5875-33.102344-162.8570312-83.877344-7.9835938-11.175781-14.840625-23.207812-20.4078125-35.926562-8.83281255-20.130469-14.43281255-42-16.1632813-64.946875-.37578125-5.036719-.571875-10.122656-.571875-15.249219 0-1.860938.02421875-3.722656.08125-5.567188.59609375-21.877343 4.70234375-42.873437 11.7875-62.449218 1.4859375-4.130469 3.1101562-8.196094 4.865625-12.1875 1.2734375-2.914063 2.6125-5.7875 4.0242187-8.628906 4.7429688-9.559375 10.2367188-18.6773442 16.3835938-27.2898442 36.2703125-50.775 95.6984375-83.8773438 162.8578125-83.8773438 19.860938 0 39.036719 2.88984375 57.142969 8.2859375 3.583593 1.0609375 7.11875 2.2289062 10.6125 3.4859375 1.877344.6695312 3.746875 1.3796875 5.6 2.10625 8.203906 3.240625 16.130469 6.9960938 23.763281 11.2492187h.007812c3.616407 2.0078125 7.159375 4.1304688 10.628907 6.359375 1.763281 1.1265625 3.502343 2.2773438 5.224219 3.4609375.824218.5632813 1.640625 1.134375 2.449218 1.70625 2 1.4125 3.967188 2.865625 5.902344 4.3429688.097656.0734375.203906.1554687.302344.2289062 1.820312 1.3960938 3.616406 2.8242188 5.3875 4.2859375 1.624219 1.3390625 3.232812 2.7023438 4.816406 4.0976563.29375.253125.5875.5140625.873438.7757812 1.926562 1.70625 3.820312 3.453125 5.68125 5.2328125.539062.5140625 1.077343 1.0367188 1.607812 1.559375 1.379688 1.3554688 2.734375 2.7265625 4.08125 4.1140625 6.792188 7.053125 13.069531 14.6039063 18.775781 22.5875 3.796094 5.3140625 7.339063 10.8242188 10.6125 16.5140628 11.877344 20.628906 20.171094 43.575781 24.032813 68 1.09375 6.824219 1.836719 13.771093 2.203906 20.816406.196094 3.574219.29375 7.166406.29375 10.790625z" fill="#5c5e70"/><path d="m373.469531 26.1390625v273.4695315c-3.273437 5.689844-6.816406 11.2-10.6125 16.514062-6.832812 9.559375-14.48125 18.497657-22.857031 26.702344-2.653125 2.596094-5.371094 5.126563-8.163281 7.567188-3.30625 2.90625-6.710157 5.697656-10.203907 8.383593-2.669531 2.040625-5.3875 4.024219-8.163281 5.934375-1.877344 1.30625-3.7875 2.571094-5.714062 3.803907-3.469532 2.228906-7.003907 4.342968-10.6125 6.342968-9.363282 5.216407-19.183594 9.697657-29.3875 13.371094v-388.228125h79.575781c14.432031 0 26.138281 11.6976563 26.138281 26.1390625z" fill="#78caef"/><path d="m362.857031 26.1390625v289.9835935c-6.832812 9.559375-14.48125 18.497656-22.857031 26.702344-2.653125 2.596094-5.371094 5.126562-8.163281 7.567187-3.30625 2.90625-6.710156 5.697657-10.203906 8.383594-2.669532 2.040625-5.3875 4.024219-8.163282 5.934375-1.877343 1.30625-3.7875 2.571094-5.714062 3.803906-3.469531 2.228907-7.003906 4.342969-10.6125 6.342969-9.363281 5.216406-19.183594 9.697656-29.3875 13.371094-3.49375 1.257031-7.028906 2.424219-10.6125 3.485937v-391.714062h79.575781c14.432031 0 26.138281 11.6976563 26.138281 26.1390625z" fill="#279fc9"/><path d="m344.08125 40.0164062v298.6937498c-1.346875 1.3875-2.702344 2.759375-4.08125 4.114063-.530469.522656-1.069531 1.044531-1.607812 1.559375-1.860938 1.779687-3.755469 3.526562-5.68125 5.232812-.285938.260938-.579688.522656-.873438.775781-1.583594 1.396094-3.192187 2.759375-4.816406 4.097657-1.771094 1.460937-3.567188 2.889843-5.3875 4.285937-.097656.073438-.203906.155469-.302344.228906-1.869531 1.428907-3.763281 2.824219-5.68125 4.1875-.726562.506251-1.453125 1.0125-2.179687 1.518751-1.877344 1.306249-3.7875 2.571093-5.714063 3.803906-3.469531 2.228906-7.003906 4.342968-10.6125 6.342969-9.363281 5.216406-19.183594 9.697656-29.3875 13.371093-3.49375 1.257031-7.028906 2.424219-10.6125 3.485938-6.139062 1.828906-12.407812 3.371093-18.775781 4.603906v-382.4414063h79.575781c14.432031 0 26.1375 11.6984375 26.1375 26.1390625z" fill="#e8dbc4"/><path d="m338.392187 40.0164062v304.3671878c-1.860937 1.779687-3.755468 3.526562-5.68125 5.232812-.285937.260938-.579687.522656-.873437.775781-1.583594 1.396094-3.192188 2.759375-4.816406 4.097657-1.771094 1.460937-3.567188 2.889843-5.3875 4.285937-.097657.073438-.203907.155469-.302344.228906-1.869531 1.428907-3.763281 2.824219-5.68125 4.1875-.726563.506251-1.453125 1.0125-2.179688 1.518751-1.877343 1.30625-3.7875 2.571093-5.714062 3.803906-3.469531 2.228906-7.003906 4.342969-10.6125 6.342969-9.363281 5.216406-19.183594 9.697656-29.3875 13.371093-3.49375 1.257032-7.028906 2.424219-10.6125 3.485938-6.139063 1.828906-12.407813 3.371094-18.775781 4.603906-1.355469.269531-2.717969.514062-4.08125.750781-.530469.089844-1.069532.1875-1.607813.269532v-383.4617193h79.575781c14.43125 0 26.1375 11.6984375 26.1375 26.1390625z" fill="#d6c8b0"/><path d="m332.710156 40.0164062v309.5999998c-.285937.260938-.579687.522657-.873437.775782-1.583594 1.396093-3.192188 2.759375-4.816406 4.097656-1.771094 1.460937-3.567188 2.889844-5.3875 4.285937-.097657.073438-.203907.155469-.302344.228906-1.869531 1.428907-3.763281 2.824219-5.68125 4.187501-.726563.50625-1.453125 1.0125-2.179688 1.51875-1.877343 1.30625-3.7875 2.571093-5.714062 3.803906-3.469531 2.228906-7.003906 4.342969-10.6125 6.342969-9.363281 5.216406-19.183594 9.697656-29.3875 13.371093-3.49375 1.257032-7.028906 2.424219-10.6125 3.485938-6.139063 1.828906-12.407813 3.371094-18.775781 4.603906-1.355469.269531-2.717969.514063-4.08125.750781-.530469.089844-1.069532.1875-1.607813.269532-1.885937.31875-3.779687.596093-5.68125.849218v-384.3109373h79.575781c3.616407 0 7.060938.734375 10.196094 2.0570313 9.370313 3.9757812 15.941406 13.2578125 15.941406 24.0820312z" fill="#e8dbc4"/><path d="m327.020313 40.0164063v314.4734377c-1.771094 1.460937-3.567188 2.889844-5.3875 4.285937-.097657.073438-.203907.155469-.302344.228906-1.869531 1.428907-3.763281 2.824219-5.68125 4.187501-.726563.50625-1.453125 1.012499-2.179688 1.51875-1.877343 1.30625-3.7875 2.571093-5.714062 3.803906-3.469531 2.228906-7.003906 4.342969-10.6125 6.342969-9.363281 5.216406-19.183594 9.697656-29.3875 13.371093-3.49375 1.257032-7.028906 2.424219-10.6125 3.485938-6.139063 1.828906-12.407813 3.371094-18.775781 4.603906-1.355469.269531-2.717969.514063-4.08125.750781-.530469.089844-1.069532.1875-1.607813.269532-1.885937.31875-3.779687.596093-5.68125.849218-.29375.040625-.579687.073438-.873437.114063-1.6.2125-3.207813.4-4.816407.571094v-384.9960942h79.575782c2.522656 0 4.971093.359375 7.282031 1.0289062 5.175781 1.49375 9.697656 4.5554688 13.0125 8.6289063v.0078125.0078125c2.644531 3.2492187 4.514062 7.1265625 5.355469 11.3960937.316406 1.640625.4875 3.3390625.4875 5.0695313z" fill="#d6c8b0"/><path d="m321.330469 40.0164062v318.9874998c-1.869531 1.428907-3.763281 2.824219-5.68125 4.1875-.726563.50625-1.453125 1.0125-2.179688 1.51875-1.877343 1.30625-3.7875 2.571094-5.714062 3.803907-3.469531 2.228906-7.003906 4.342968-10.6125 6.342968-9.363281 5.216407-19.183594 9.697657-29.3875 13.371094-3.49375 1.257031-7.028907 2.424219-10.6125 3.485938-6.139063 1.828906-12.407813 3.371093-18.775781 4.603906-1.355469.269531-2.717969.514062-4.08125.750781-.530469.089844-1.069532.1875-1.607813.269531-1.885937.31875-3.779687.596094-5.68125.849219-.29375.040625-.579687.073438-.873437.114062-1.6.212501-3.207813.400001-4.816407.571094-1.7875.196094-3.583593.359375-5.3875.50625-.097656.007813-.203906.017188-.302343.024219v-385.5257813h79.575781c2.522656 0 4.971093.359375 7.28125 1.0289063 5.175781 1.49375 9.697656 4.5554687 13.0125 8.6289062v.0078125.0078125c2.644531 3.2492188 4.514062 7.1265625 5.355469 11.3960938.317187 1.640625.488281 3.3390625.488281 5.0695312z" fill="#e8dbc4"/><path d="m315.649219 40.0164063v323.1757807c-.726563.506251-1.453125 1.0125-2.179688 1.518751-1.877343 1.30625-3.7875 2.571093-5.714062 3.803906-3.469531 2.228906-7.003906 4.342969-10.6125 6.342969-9.363281 5.216406-19.183594 9.697656-29.3875 13.371093-3.49375 1.257032-7.028906 2.424219-10.6125 3.485938-6.139063 1.828906-12.407813 3.371094-18.775781 4.603906-1.355469.269531-2.717969.514063-4.08125.750781-.530469.089844-1.069532.1875-1.607813.269532-1.885937.31875-3.779687.596093-5.68125.849218-.29375.040625-.579687.073438-.873437.114063-1.6.2125-3.207813.4-4.816407.571094-1.7875.196093-3.583593.359375-5.3875.50625-.097656.007812-.203906.017187-.302343.024218-1.885938.146875-3.779688.260938-5.68125.350782v-385.8773442h79.575781c2.522656 0 4.971094.359375 7.282031 1.0289062 5.175781 1.49375 9.697656 4.5554688 13.0125 8.6289063v.0078125.0078125c2.644531 3.2492187 4.514063 7.1265625 5.355469 11.3960937.10625.5632813.203906 1.134375.269531 1.70625.144531 1.1023438.217969 2.228125.217969 3.3632813z" fill="#d6c8b0"/><path d="m307.755469 26.1390625v342.3757815c-3.469531 2.228906-7.003906 4.342968-10.6125 6.342968-9.363281 5.216407-19.183594 9.697657-29.3875 13.371094-3.49375 1.257031-7.028906 2.424219-10.6125 3.485938-7.444531 2.220312-15.077344 4.016406-22.857031 5.355468-2.702344.473438-5.428907.88125-8.163282 1.232813-3.379687.449219-6.775781.8-10.203906 1.077344-2.702344.2125-5.428906.367187-8.163281.473437-2.571875.096875-5.159375.146094-7.755469.146094-67.159375 0-126.5875-33.102344-162.8570312-83.877344-7.9835938-11.175781-14.840625-23.207812-20.4078125-35.926562v-254.0570315c0-14.4414062 11.6976562-26.1390625 26.1304687-26.1390625h238.750781c.334375 0 .660938.0078125.996094.01640625.29375.01640625.579688.0328125.865625.04921875.220313.01640625.449219.0328125.669531.05703125 2.220313.2125 4.359375.70234375 6.375782 1.43671875.228906.08125.457031.16328125.677343.253125.603907.23671875 1.192188.49765625 1.763282.77578125.260937.12265625.522656.253125.783593.3921875.302344.15546875.596094.31875.88125.48125.2125.13046875.424219.253125.636719.38359375.236719.146875.465625.29375.69375.440625.742969.48125 1.460938 1.0125 2.146875 1.57578125.139063.10625.277344.2203125.407813.34296875.073437.04921875.139062.1140625.203906.17109375.122656.09765625.236719.20390625.350781.31015625 1.134375 1.00390625 2.171094 2.12265625 3.110156 3.3140625.10625.1390625.2125.2773437.326563.4164062.473437.6289063.914062 1.28125 1.339062 1.9507813.130469.2203125.260938.440625.392188.6609375.032812.0570312.065625.10625.089844.1632812.139062.2289063.260937.4570313.383593.6859375.163282.3023438.31875.6125.465625.9226563.179688.3757812.350782.759375.514063 1.134375.130469.3023437.244531.5960937.359375.8976562.097656.2367188.179687.48125.260937.71875.139063.3921875.260938.7835938.383594 1.1835938.073438.253125.146875.4976562.203906.7507812.350782 1.3140625.596094 2.6695313.726563 4.0492188v.0078125.0078125c.024219.2125.040625.4242187.057031.6367188.049219.6460937.074219 1.2992187.074219 1.9523437z" fill="#34abe0"/><path d="m87.321 219-.033-15.312-7.59 12.672h-1.914l-7.59-12.474v15.114h-4.092v-23.1h3.531l9.174 15.312 9.009-15.312h3.531l.033 23.1zm25.608-5.346h-11.55l-2.277 5.346h-4.422l10.395-23.1h4.224l10.428 23.1h-4.488zm-1.419-3.366-4.356-10.098-4.323 10.098zm32.01-14.388v23.1h-3.531l-12.738-15.642v15.642h-4.257v-23.1h3.531l12.738 15.642v-15.642zm6.534 0h4.29v23.1h-4.29zm15.147 3.597v7.029h11.154v3.63h-11.154v8.844h-4.29v-23.1h16.863v3.597zm34.386 15.906v3.597h-17.325v-23.1h16.863v3.597h-12.573v6.006h11.154v3.531h-11.154v6.369zm12.276 3.927c-1.782009 0-3.503492-.252997-5.1645-.759s-2.975495-1.176996-3.9435-2.013l1.485-3.333c.946005.748004 2.106493 1.358498 3.4815 1.8315s2.755493.7095 4.1415.7095c1.716009 0 2.997496-.274997 3.8445-.825s1.2705-1.275995 1.2705-2.178c0-.660003-.236498-1.204498-.7095-1.6335s-1.072496-.764499-1.7985-1.0065-1.715994-.516998-2.97-.825c-1.760009-.418002-3.184495-.835998-4.2735-1.254s-2.023996-1.072496-2.805-1.9635-1.1715-2.095492-1.1715-3.6135c0-1.276006.346496-2.436495 1.0395-3.4815.693003-1.045005 1.737993-1.875497 3.135-2.4915s3.10749-.924 5.1315-.924c1.408007 0 2.793993.175998 4.158.528s2.541.857997 3.531 1.518l-1.353 3.333c-1.012005-.594003-2.067995-1.044998-3.168-1.353-1.100006-.308002-2.166995-.462-3.201-.462-1.694009 0-2.953496.285997-3.7785.858s-1.2375 1.330995-1.2375 2.277c0 .660003.236498 1.198998.7095 1.617s1.072496.747999 1.7985.99 1.715994.516998 2.97.825c1.716009.396002 3.123994.808498 4.224 1.2375 1.100005.429002 2.040496 1.083496 2.8215 1.9635s1.1715 2.067993 1.1715 3.564c0 1.276006-.346497 2.430995-1.0395 3.465-.693004 1.034005-1.743493 1.858997-3.1515 2.475s-3.12399.924-5.148.924zm18.282-19.8h-7.656v-3.63h19.602v3.63h-7.656v19.47h-4.29zm25.971 19.8c-2.354012 0-4.476991-.511495-6.369-1.5345-1.89201-1.023005-3.376995-2.441991-4.455-4.257s-1.617-3.844489-1.617-6.0885.538995-4.273491 1.617-6.0885 2.56299-3.233995 4.455-4.257c1.892009-1.023005 4.014988-1.5345 6.369-1.5345s4.47699.511495 6.369 1.5345c1.892009 1.023005 3.376995 2.436491 4.455 4.2405s1.617 3.838989 1.617 6.105-.538995 4.300991-1.617 6.105-2.562991 3.217495-4.455 4.2405c-1.89201 1.023005-4.014988 1.5345-6.369 1.5345zm0-3.762c1.540008 0 2.925994-.346497 4.158-1.0395s2.199996-1.660994 2.904-2.904c.704003-1.243006 1.056-2.634492 1.056-4.1745s-.351997-2.931494-1.056-4.1745c-.704004-1.243006-1.671994-2.210997-2.904-2.904s-2.617992-1.0395-4.158-1.0395-2.925994.346497-4.158 1.0395-2.199997 1.660994-2.904 2.904c-.704004 1.243006-1.056 2.634492-1.056 4.1745s.351996 2.931494 1.056 4.1745c.704003 1.243006 1.671994 2.210997 2.904 2.904s2.617992 1.0395 4.158 1.0395z" fill="#797b89"/><path d="m307.755469 26.1390625v342.3757815c-3.469531 2.228906-7.003906 4.342968-10.6125 6.342968v-348.7187495c0-.334375-.007813-.6773437-.016406-1.0125h-.007813c-.130469-3.6492188-1.020312-7.1023438-2.50625-10.2203125-.163281-.3429688-.334375-.6859375-.514063-1.0289063-4.392187-8.25312495-13.085937-13.8773437-23.094531-13.8773437h10.6125c.334375 0 .660938.0078125.996094.01640625.29375.01640625.579687.0328125.865625.04921875.220312.01640625.449219.0328125.669531.05703125 2.220313.2125 4.359375.70234375 6.375782 1.43671875.228906.08125.457031.16328125.677343.253125.603907.23671875 1.192188.49765625 1.763282.77578125.260937.12265625.522656.253125.783593.3921875.302344.15546875.596094.31875.88125.48125.2125.13046875.424219.253125.636719.38359375.236719.146875.465625.29375.69375.440625.742969.48125 1.460938 1.0125 2.146875 1.57578125.139062.10625.277344.2203125.407812.34296875.073438.04921875.139063.1140625.203907.17109375.122656.09765625.236718.20390625.350781.31015625 1.134375 1.00390625 2.171094 2.12265625 3.110156 3.3140625.10625.1390625.2125.2773437.326563.4164062.473437.6289063.914062 1.28125 1.339062 1.9507813.130469.2203125.260938.440625.392188.6609375.032812.0570312.065625.10625.089844.1632812.139062.2289063.260937.4570313.383593.6859375.163282.3023438.31875.6125.465625.9226563.179688.3757812.350782.759375.514063 1.134375.130468.3023437.244531.5960937.359375.8976562.097656.2367188.179687.48125.260937.71875.139063.3921875.260938.7835938.383594 1.1835938.073437.253125.146875.4976562.203906.7507812.350782 1.3140625.596094 2.6695313.726563 4.0492188v.0078125.0078125c.024219.2125.040625.4242187.057031.6367188.049219.6460937.074219 1.2992187.074219 1.9523437z" fill="#78caef"/><path d="m90.244 168.948h-17.556l-3.102 8.052h-15.84l20.196-46.2h15.312l20.196 46.2h-16.104zm-4.29-11.22-4.488-11.616-4.488 11.616zm56.562-5.082h13.53v19.536c-2.728014 1.892009-5.895982 3.343995-9.504 4.356s-7.149983 1.518-10.626 1.518c-4.928025 0-9.34998-1.02299-13.266-3.069s-6.984989-4.905982-9.207-8.58-3.333-7.842977-3.333-12.507 1.110989-8.832982 3.333-12.507 5.32398-6.53399 9.306-8.58 8.480975-3.069 13.497-3.069c4.532023 0 8.590982.758992 12.177 2.277s6.566988 3.728985 8.943 6.633l-9.966 8.778c-2.904015-3.388017-6.35798-5.082-10.362-5.082-3.432017 0-6.15999 1.03399-8.184 3.102s-3.036 4.883982-3.036 8.448c0 3.476017 1.00099 6.269989 3.003 8.382s4.674983 3.168 8.019 3.168c1.98001 0 3.871991-.373996 5.676-1.122zm20.856-21.846h15.576v46.2h-15.576zm23.76 0h15.576v34.122h20.856v12.078h-36.432zm79.794 34.452v11.748h-38.412v-46.2h37.554v11.748h-22.242v5.412h19.536v11.22h-19.536v6.072z" fill="#5c5e70"/></g></svg>